<svg version="1.1" id="Ebene_1" xmlns="http://www.w3.org/2000/svg" x="0px" y="0px" viewBox="0 0 1000 1000" xml:space="preserve" enable-background="new 0 0 1000 1000"><style type="text/css"> .st0{opacity:0.1;fill:#FFFFFF;} .st1{opacity:0.2;fill:#FFFFFF;} .st2{fill:#FFFFFF;} .st3{fill:none;stroke:#423F3F;stroke-width:37.8386;stroke-miterlimit:10;} .st4{fill:#E1141B;} </style><g><path class="st0" d="M508.3 931.4c-28.9 0-58.9-3.2-89.3-9.4 -13.6 4.7-28 7.1-42.4 7.1 -10.4 0-20.7-1.2-30.8-3.7 -44.2-10.7-83.8-27.4-118.2-49.6 -28.9-3.4-55.6-16.3-76.5-37.2 -31.6-31.5-54.5-73-68.3-123.3 -3.5-4.8-6.7-9.9-9.6-15.1 -22.9-42.3-30.7-91.1-23-141.9 -5.2-21.7-4.9-44.6 1.1-66.1 9-31.8 25.4-63 48.9-92.9 -33-80.2-35.1-132-30.4-162.4 7.7-48.8 41.6-88.5 88.5-103.8 30.2-9.8 62.3-14.8 95.4-14.8 53.3 0 101.7 12.9 138.2 26.7 43.4-18.8 83.4-23.2 111.2-23.2 6.7 0 12.8 0.3 18.1 0.6 37.3-27.5 94-53.9 174.6-53.9 10.3 0 21 0.4 31.6 1.3 59.7 4.8 108.3 49.4 118.2 108.4 2.1 12.6 7.9 52.8 5.1 98.7 10.5 16.4 17.5 34 20.7 52.1 2 11.5 2.5 23.1 1.5 34.5 11.7 11.8 19.2 21.7 22.8 26.7 11.3 16 18.8 34.2 22.1 53.4 28.2 46.2 35.1 87.8 36.6 100.2 3.1 25.5-1.4 51.3-12.7 74 -3.5 27.4-12.4 53.1-26.5 76.5 -15.3 25.2-33.9 43-49.4 54.7 -30.7 46.8-65.5 77-72.5 82.9C780 843 764.5 851.3 748 856.4c-9.3 7.1-16.4 11.8-19.5 13.8 -15.4 9.7-32.6 16.1-50.4 18.8 -0.1 0.1-1.9 1-2.6 1.4 -0.8 0.5-1.6 0.9-2.4 1.3C623.6 918 568.2 931.4 508.3 931.4L508.3 931.4z"/><path class="st1" d="M508.3 875.5c-30.5 0-62.3-4-94.9-12 -11 6.3-23.6 9.8-36.8 9.8 -5.9 0-11.9-0.7-17.6-2.1 -43.4-10.6-81.2-27.4-112.8-50.3 -1 0-1.9 0.1-2.9 0.1 -19.9 0-38.6-7.7-52.7-21.8 -26.8-26.8-45.9-63.6-56.7-109.5 -4.5-4.7-8.3-10-11.5-15.9 -18.9-35-23.9-75.6-14.8-118.8 -5.8-14.8-7-31.4-2.5-47.5 10.8-38.5 35.2-71.9 60.6-98.2 -44.5-94-43.6-144.8-40.7-163.6 4.4-27.9 23.8-50.6 50.6-59.3 24.6-8 50.9-12.1 78.1-12.1 55.2 0 105.1 16.4 140.2 32.1 43.6-24.3 85.5-28.5 109.2-28.5 14.6 0 24.8 1.5 28.5 2.2 2.1 0.4 4.1 0.8 6.1 1.3 29.6-27.4 79.7-56.8 158-56.8 8.8 0 18 0.4 27.1 1.1 34.1 2.7 61.9 28.2 67.5 61.9 1.8 10.8 8.8 57.5 2.5 105.6 15.1 17 21.2 33.2 23.3 45.6 2.7 15.4 0.6 30.8-5.7 44.4 23.2 17.5 36.1 34.7 39.5 39.4 8.6 12.1 13.1 26.2 13.6 40.4 28.3 41.2 34.2 79.3 35.2 87.6 2.2 18.2-2.2 35.8-11.7 50.1 -1.4 23.3-8.1 45.3-19.9 64.7 -13.4 22.1-30.4 36.2-42.9 44.4 -28 45.9-62.7 75.6-67 79.1 -10 8.4-22.1 13.9-34.9 16.1 -12.1 10.1-21.7 16.3-24.1 17.8 -11.5 7.3-24.6 11.2-38.1 11.5 -3.2 2-6.5 4-9.8 5.8 -0.8 0.4-1.5 0.8-2.3 1.2 -0.5 0.3-1.1 0.6-1.7 0.9C605.4 864.3 558.9 875.5 508.3 875.5L508.3 875.5z"/><path class="st2" d="M843.5 557.2c-0.3-2.2-5.6-42.2-39.5-80.1 5.1-6.4 5.4-15.5 0.6-22.3 -1-1.4-22.6-31.3-64.9-48.2l-6.5-38.4 4.6 1.3c1.7 0.5 3.5 0.7 5.2 0.7 4.5 0 9-1.7 12.4-4.8 4.8-4.3 7-10.8 5.9-17.1 -1-5.6-5.9-18.9-29.6-34.4 15-48.4 4.2-114.1 3.7-117.2 -1.4-8.4-8.4-14.8-16.9-15.5 -7.7-0.6-15.3-0.9-22.7-0.9 -85.7 0-125.1 42.3-140.3 65.5 -6.2 0.4-12.6 1-19 1.7 -2.1-6.4-7.6-11.4-14.5-12.6 -0.8-0.1-7.8-1.3-18.8-1.3 -22.7 0-65.1 5.1-105.2 37.1 -24.2-13.4-80.9-40.6-144.3-40.6 -21.4 0-41.8 3.1-60.8 9.3 -6.7 2.2-11.6 7.9-12.6 14.8 -0.9 5.5-6.3 55.2 54.5 167.4 -21.7 17.7-63.3 56.4-75.8 100.9 -2.4 8.6 1.6 17.7 9.6 21.7 -11.3 32.5-15 69.4 3 102.9 2.7 5 7.4 8.3 12.7 9.4 5.9 35.7 18.6 75.9 45.8 103 3.6 3.6 8.4 5.4 13.2 5.4 3.3 0 6.6-0.9 9.6-2.7 1.9-1.2 3.6-2.6 4.9-4.3 24.3 23.1 60.5 45.8 114.3 58.9 1.5 0.4 3 0.5 4.4 0.5 7.7 0 14.9-4.8 17.6-12.4 0.6-1.6 0.9-3.2 1-4.8 32.7 10.7 72 19.5 113.2 19.5 0 0 0 0 0 0 41.3 0 79-8.9 112-26.5 0.2-0.1 0.3-0.2 0.5-0.3 0.9-0.5 1.8-1 2.8-1.5 7-3.8 15.2-9.2 24-16.4 3.2 2.4 7.1 3.7 11.1 3.7 3.4 0 6.9-0.9 9.9-2.9 1.2-0.8 16.8-10.7 33.2-27.2 2.5 1.2 5.2 1.8 8 1.8 4.2 0 8.5-1.4 11.9-4.3 1.9-1.6 37.9-31.9 62.1-77.8 0.9-0.2 1.7-0.6 2.6-0.9 2-0.9 20.3-9.7 33.1-30.8 7.9-13 14.6-32.6 11.1-59.2 0.2-0.1 0.4-0.1 0.6-0.2C839.4 574.1 844.5 565.8 843.5 557.2z"/><g><path class="st3" d="M441.3 759.3"/><g><g><polygon class="st2" points="431.9 740.2 282.4 656.5 267.6 459.8 263.8 397.4 213.3 275.9 251.1 251.3 354.8 283.1 465.5 347.9 621.5 249 700.6 199.1 680 357.3 739 487.4 705 610.8 578.3 729.9 "/><path class="st4" d="M825 559.4c0 0-7.2-59.6-68.7-98.3 0 0 25.6-0.7 33.1 4.4 0 0-22.1-31.2-66.2-45.1L709.8 342l33.2 9.7c0 0-2.3-12.8-34.4-29.6 21.7-43.4 8.5-122.2 8.5-122.2 -105-8.5-141.6 46.7-150.5 64.1 -25.2 0.9-56.5 4.9-94.9 14.2 0 0 22.3-20.9 47.1-24.9 0 0-63.7-11.2-118.7 40.3 0 0-104.1-68.1-201.3-36.4 0 0-7.8 49.5 60.1 169.5 0 0-66.7 46.8-82 100.9 0 0 36.1-49.3 58.1-60.6 0 0-86.4 98.3-47 171.3 0 0-0.5-46.2 13.2-59.8 0 0-5.4 43 5.3 80.4 -0.7-0.5-1.5-0.9-2.2-1.4 1.9 2.1 3.6 4.4 5.2 7.2 0.1 0.2 0.2 0.4 0.3 0.7 6.2 1.6 12.2 3.7 18.1 6.4 -2.7-13.7-4.1-28.6 0-37.4 0 0 4.4 19.6 13.8 45 2.2 1.4 4.5 2.8 6.7 4.4 13.2 9.9 25.6 20.3 37.7 31.3 7.3 1.9 14.6 3.8 21.8 5.8 34.2 14.8 56.3 26.9 94.7 36.5 35.1 8.8 69.4 18.3 103.9 29 16.6 5.2 29.4 1.8 48.5 1.5 26-0.3 42.5-10-0.3 6.1 11.5-4.3 23.2-7.2 34.9-8.7 -0.1-0.1-0.4-0.3-0.4-0.3l0 0c2.4-0.6 4.7-1.3 7.2-2 0 0 7.3-1.9 18.3-7.9 15.6-8.6 38.7-25.7 58.9-58 0 0-8.9 37.4-14.8 43 0 0 49.7-31.4 61.7-73.7 0 0-6.9 38-10.5 45.4 0 0 54.7-45.6 72-107.9 0 0-0.4 22.3-3.1 26.5 0 0 58.9-26.7 22.3-107.5C801 542.7 815.7 544.9 825 559.4zM283.1 381.5c-33.9-29.5-49.3-97.2-49.3-97.2 49.1-16.6 116.6 31.8 116.6 31.8C312.8 338.9 283.1 381.5 283.1 381.5zM540.2 580.5c-45 4.8-86.2-35.3-92-89.7 -5.8-54.4 22.2-137 67.2-141.8 45-4.8 89.9 69.9 95.8 124.3C616.9 527.7 585.1 575.7 540.2 580.5zM698.5 540.5c-6.1 22.2-25.8 46.7-25.8 46.7s-81.7-28.2-45.2-41.6C664 532.4 704.6 518.3 698.5 540.5zM674.4 329c0 0-52.2-43.3-72.9-51.7 -8.9-3.6 27.8-47.1 87-49.2C688.6 228.1 701.8 301.8 674.4 329z"/><path class="st4" d="M198.6 580c0 0-8 113.8 44.6 166.3 0 0-15-48.4-14.7-70.3 0 0 17.5 90.9 148 122.7 0 0-34.2-16.3-57.7-52.7 0 0 163.3 99.6 292.6 30.6l-237.1-79.4c0 0-102-112.2-104.6-112.7C267.3 584 198.6 580 198.6 580z"/><path class="st4" d="M589.9 470.4c0 0-40.1 101.3-120 16.3C469.9 486.7 543.5 540 589.9 470.4z"/><path class="st2" d="M715.8 445.2c0 0-27.9 70.8-77.3 14.9C638.5 460.2 684.6 494.4 715.8 445.2z"/></g><path class="st2" d="M445.3 685.7c-10.5-4.3-20.5-9.7-29.9-16 -79.7-53.4-91.6-160.4-91.7-161.5 -0.2-1.6 1-3.1 2.7-3.3 1.6-0.2 3.1 1 3.3 2.7 0.1 1 11.7 105.4 89.1 157.2 49.7 33.3 115.7 38.1 195.9 14.4 1.6-0.5 3.2 0.4 3.7 2 0.5 1.6-0.4 3.2-2 3.7C549.3 704.8 492 705 445.3 685.7z"/></g><path class="st2" d="M290.2 514.8c0 0 23.9-81.3 68.9-15.2 0 0-40.2-46.6-70.5 28.1"/></g></g></svg>